<svg width="53" height="52" viewBox="0 0 53 52" fill="none" xmlns="http://www.w3.org/2000/svg">
<circle cx="26.5" cy="26" r="26" fill="#F4F0EC"/>
<path d="M19.996 26.4C19.996 25.8027 20.0547 25.2533 20.172 24.752C20.2893 24.2507 20.4547 23.8187 20.668 23.456C20.892 23.0933 21.1587 22.816 21.468 22.624C21.7773 22.4213 22.1187 22.32 22.492 22.32C22.8867 22.32 23.2333 22.4213 23.532 22.624C23.8413 22.816 24.1027 23.0933 24.316 23.456C24.54 23.8187 24.7107 24.2507 24.828 24.752C24.9453 25.2533 25.004 25.8027 25.004 26.4C25.004 26.9973 24.9453 27.5467 24.828 28.048C24.7107 28.5493 24.54 28.9813 24.316 29.344C24.1027 29.7067 23.8413 29.9893 23.532 30.192C23.2333 30.384 22.8867 30.48 22.492 30.48C22.1187 30.48 21.7773 30.384 21.468 30.192C21.1587 29.9893 20.892 29.7067 20.668 29.344C20.4547 28.9813 20.2893 28.5493 20.172 28.048C20.0547 27.5467 19.996 26.9973 19.996 26.4ZM18.14 26.4C18.14 27.5627 18.3213 28.576 18.684 29.44C19.0573 30.304 19.5693 30.976 20.22 31.456C20.8813 31.936 21.6387 32.176 22.492 32.176C23.3667 32.176 24.1293 31.936 24.78 31.456C25.4413 30.976 25.9533 30.304 26.316 29.44C26.6787 28.576 26.86 27.5627 26.86 26.4C26.86 25.2373 26.6787 24.224 26.316 23.36C25.9533 22.496 25.4413 21.824 24.78 21.344C24.1293 20.864 23.3667 20.624 22.492 20.624C21.6387 20.624 20.8813 20.864 20.22 21.344C19.5693 21.824 19.0573 22.496 18.684 23.36C18.3213 24.224 18.14 25.2373 18.14 26.4ZM28.7 23.424L31.292 22.704V32H33.164V20.624L28.7 21.632V23.424Z" fill="#292F36"/>
</svg>
