<svg width="30" height="30" viewBox="0 0 30 30" fill="none" xmlns="http://www.w3.org/2000/svg">
<path d="M15.0015 11.7C14.568 11.7 14.1386 11.7854 13.7381 11.9513C13.3375 12.1172 12.9736 12.3604 12.667 12.667C12.3604 12.9736 12.1172 13.3375 11.9513 13.7381C11.7854 14.1386 11.7 14.568 11.7 15.0015C11.7 15.4351 11.7854 15.8644 11.9513 16.2649C12.1172 16.6655 12.3604 17.0295 12.667 17.336C12.9736 17.6426 13.3375 17.8858 13.7381 18.0517C14.1386 18.2176 14.568 18.303 15.0015 18.303C15.8771 18.3028 16.7168 17.9548 17.3358 17.3355C17.9548 16.7162 18.3025 15.8764 18.3023 15.0008C18.3021 14.1251 17.954 13.2855 17.3347 12.6665C16.7155 12.0475 15.8756 11.6998 15 11.7H15.0015ZM15.0015 7.80001C15.4349 7.79982 15.864 7.71426 16.2643 7.54824C16.6646 7.38222 17.0282 7.13898 17.3345 6.8324C17.6408 6.52583 17.8837 6.16193 18.0494 5.76148C18.215 5.36103 18.3002 4.93187 18.3 4.49851C18.2998 4.06515 18.2143 3.63607 18.0482 3.23577C17.8822 2.83547 17.639 2.47179 17.3324 2.1655C17.0258 1.85921 16.6619 1.61629 16.2615 1.45064C15.861 1.28498 15.4319 1.19982 14.9985 1.20001C14.1233 1.20041 13.2841 1.54847 12.6655 2.16762C12.0469 2.78677 11.6996 3.6263 11.7 4.50151C11.7004 5.37673 12.0485 6.21594 12.6676 6.83453C13.2868 7.45311 14.1263 7.80041 15.0015 7.80001ZM15.0015 22.2C14.1259 22.2 13.2862 22.5478 12.667 23.167C12.0478 23.7861 11.7 24.6259 11.7 25.5015C11.7 26.3771 12.0478 27.2169 12.667 27.836C13.2862 28.4552 14.1259 28.803 15.0015 28.803C15.8771 28.803 16.7169 28.4552 17.336 27.836C17.9552 27.2169 18.303 26.3771 18.303 25.5015C18.303 24.6259 17.9552 23.7861 17.336 23.167C16.7169 22.5478 15.8771 22.2 15.0015 22.2Z" fill="white"/>
</svg>
