<svg width="27" height="27" viewBox="0 0 27 27" fill="none" xmlns="http://www.w3.org/2000/svg">
<path d="M9.87939 8.09711C10.097 8.09711 10.3056 8.18353 10.4594 8.33737C10.6133 8.49121 10.6997 8.69986 10.6997 8.91742V20.4018C10.6997 20.6194 10.6133 20.828 10.4594 20.9818C10.3056 21.1357 10.097 21.2221 9.87939 21.2221H9.05908C8.84152 21.2221 8.63287 21.1357 8.47903 20.9818C8.32519 20.828 8.23877 20.6194 8.23877 20.4018V8.91742C8.23877 8.69986 8.32519 8.49121 8.47903 8.33737C8.63287 8.18353 8.84152 8.09711 9.05908 8.09711H9.87939ZM4.13721 8.09711C4.35477 8.09711 4.56342 8.18353 4.71726 8.33737C4.87109 8.49121 4.95752 8.69986 4.95752 8.91742V20.4018C4.95752 20.8546 4.59002 21.2221 4.13721 21.2221H3.31689C3.09933 21.2221 2.89068 21.1357 2.73685 20.9818C2.58301 20.828 2.49658 20.6194 2.49658 20.4018V8.91742C2.49658 8.69986 2.58301 8.49121 2.73685 8.33737C2.89068 8.18353 3.09933 8.09711 3.31689 8.09711H4.13721ZM20.7567 8.43617C22.1239 7.65633 23.8247 8.64398 23.8247 10.219V19.1024C23.8247 20.6774 22.1239 21.6651 20.7567 20.883L12.9824 16.4413C11.6042 15.6538 11.6042 13.6676 12.9824 12.8801L20.7567 8.43617Z" fill="white"/>
</svg>
