<svg width="31" height="31" viewBox="0 0 31 31" fill="none" xmlns="http://www.w3.org/2000/svg">
<path d="M19.3214 9.15179C19.0728 9.15179 18.8343 9.25057 18.6585 9.42638C18.4827 9.6022 18.3839 9.84065 18.3839 10.0893V23.2143C18.3839 23.4629 18.4827 23.7014 18.6585 23.8772C18.8343 24.053 19.0728 24.1518 19.3214 24.1518H20.2589C20.5076 24.1518 20.746 24.053 20.9218 23.8772C21.0976 23.7014 21.1964 23.4629 21.1964 23.2143V10.0893C21.1964 9.84065 21.0976 9.6022 20.9218 9.42638C20.746 9.25057 20.5076 9.15179 20.2589 9.15179H19.3214ZM25.8839 9.15179C25.6353 9.15179 25.3968 9.25057 25.221 9.42638C25.0452 9.6022 24.9464 9.84065 24.9464 10.0893V23.2143C24.9464 23.7318 25.3664 24.1518 25.8839 24.1518H26.8214C27.0701 24.1518 27.3085 24.053 27.4843 23.8772C27.6601 23.7014 27.7589 23.4629 27.7589 23.2143V10.0893C27.7589 9.84065 27.6601 9.6022 27.4843 9.42638C27.3085 9.25057 27.0701 9.15179 26.8214 9.15179H25.8839ZM6.89016 9.53929C5.32766 8.64804 3.38391 9.77679 3.38391 11.5768V21.7293C3.38391 23.5293 5.32766 24.658 6.89016 23.7643L15.7752 18.688C17.3502 17.788 17.3502 15.518 15.7752 14.618L6.89016 9.53929Z" fill="white"/>
</svg>
