<svg width="30" height="30" viewBox="0 0 30 30" fill="none" xmlns="http://www.w3.org/2000/svg">
<path d="M23.75 13.75H9.78753L15.8875 7.65002C16.375 7.16252 16.375 6.36252 15.8875 5.87502C15.7719 5.75914 15.6345 5.6672 15.4833 5.60447C15.3321 5.54175 15.17 5.50946 15.0063 5.50946C14.8426 5.50946 14.6805 5.54175 14.5292 5.60447C14.378 5.6672 14.2407 5.75914 14.125 5.87502L5.88753 14.1125C5.77165 14.2282 5.67971 14.3655 5.61699 14.5167C5.55426 14.668 5.52197 14.8301 5.52197 14.9938C5.52197 15.1575 5.55426 15.3196 5.61699 15.4708C5.67971 15.622 5.77165 15.7594 5.88753 15.875L14.125 24.1125C14.2408 24.2282 14.3781 24.32 14.5293 24.3827C14.6806 24.4453 14.8426 24.4775 15.0063 24.4775C15.1699 24.4775 15.332 24.4453 15.4832 24.3827C15.6344 24.32 15.7718 24.2282 15.8875 24.1125C16.0033 23.9968 16.0951 23.8594 16.1577 23.7082C16.2203 23.557 16.2526 23.3949 16.2526 23.2313C16.2526 23.0676 16.2203 22.9055 16.1577 22.7543C16.0951 22.6031 16.0033 22.4657 15.8875 22.35L9.78753 16.25H23.75C24.4375 16.25 25 15.6875 25 15C25 14.3125 24.4375 13.75 23.75 13.75Z" fill="white"/>
</svg>
